<?xml version="1.0" encoding="iso-8859-1"?>
<!-- Generator: Adobe Illustrator 19.0.0, SVG Export Plug-In . SVG Version: 6.00 Build 0)  -->
<svg version="1.1" id="Layer_1" xmlns="http://www.w3.org/2000/svg" xmlns:xlink="http://www.w3.org/1999/xlink" x="0px" y="0px"
	 viewBox="0 0 512 512" style="enable-background:new 0 0 512 512;" xml:space="preserve">
<circle style="fill:#0F7986;" cx="256" cy="256" r="256"/>
<g>
	<path style="fill:#FED298;" d="M271.268,77.147l6.404-5.938c2.48-1.224,5.475,2.114,5.234,3.98l-4.721,8.04
		C277.434,84.509,270.995,80.222,271.268,77.147L271.268,77.147z"/>
	<path style="fill:#FED298;" d="M232.975,137.637c-9.914-19.326-13.087-38.231-0.842-56.225l23.453-22.362l-7.716-13.359
		l-23.932,8.717l-4.679-26.351c-2.059-3.645-15.831-2.922-16.96,3.594c0,0,0.248,21.894-0.259,31.055
		c-0.508,9.16-31.404,27.702-13.327,78.924C195.963,172.486,232.975,137.638,232.975,137.637L232.975,137.637z"/>
</g>
<g>
	<path style="fill:#E8B57F;" d="M245.756,47.464c2.043-2.886,6.073-2.858,9.002,0.065c2.93,2.924,3.65,7.634,1.607,10.521
		c-2.043,2.886-6.074,2.856-9.003-0.066C244.433,55.06,243.713,50.351,245.756,47.464L245.756,47.464z"/>
	<path style="fill:#E8B57F;" d="M290.489,124.431c3.073-15.618-7.064-57.389-45.723-55.33c-38.658,2.059-42.258,46.71-42.258,46.71
		l21.585,8.211c0,0,7.495-21.531,24.907-22.554c17.411-1.024,12.286,14.052,12.286,14.052L290.489,124.431L290.489,124.431z"/>
</g>
<path style="fill:#FED298;" d="M252.624,70.39l5.28-8.719c1.565-2.284,7.324,0.142,7.124,2.419l-2.371,10.015
	C262.305,75.594,253.096,73.38,252.624,70.39z"/>
<path style="fill:#FF5B62;" d="M275.358,115.374c42.218,10.554,67.455,82.144,58.279,134.458
	c-9.178,52.313-48.185,63.786-82.603,45.429c-34.418-18.356-86.272-35.792-89.943-81.223
	C154.713,135.107,194.95,95.272,275.358,115.374L275.358,115.374z"/>
<path style="fill:#ED4C54;" d="M331.684,192.663c4.205,19.17,5.089,39.295,1.953,57.168c-9.178,52.313-48.186,63.785-82.603,45.429
	c-34.418-18.356-86.272-35.792-89.943-81.223c-1.374-17.027-0.578-32.232,2.321-45.41c11.402-13.67,21.921-21.33,21.921-21.33
	c-43.131,55.776-3.958,107.096,45.242,130.548c19.139,9.123,42.07,18.919,60.09,16.165
	C330.963,287.851,331.215,238.661,331.684,192.663L331.684,192.663z"/>
<g>
	<path style="fill:#FF878E;" d="M283.158,122.115c0,0,12.356-19.318,31.724-10.193c19.368,9.125,9.392,48.784,6.215,50.495
		c-3.176,1.711,1.155-6.589-10.671-17.986C298.598,133.037,277.507,134.807,283.158,122.115z"/>
	<path style="fill:#FF878E;" d="M176.385,111.093c-46.209,11.759-42.651,66.081-32.443,90.84
		c10.209,24.759,21.607,23.947,21.51,23.272c-2.811-19.509-10.558-59.094,21.921-74.577c16.041-7.647,28.51-17.064,27.253-25.633
		C213.132,114.829,194.876,106.387,176.385,111.093z"/>
</g>
<path style="fill:#FED298;" d="M223.734,113.965l11.587-16.639c15.969-25.918,46.656-15.409,37.043,34.331
	C272.363,131.659,249.698,109.883,223.734,113.965L223.734,113.965z"/>
<path style="fill:#FF878E;" d="M220.303,121.625c0,0-0.782-8.806,9.226-9.574c10.01-0.768,40.74,6.408,44.707,14.264
	c3.966,7.857,16.903,13.032,18.295,16.6c1.391,3.567-10.076-8.233-30.099-9.441c-20.025-1.207-26.12-7.1-33.783-7.327
	C220.984,125.918,213.247,124.579,220.303,121.625L220.303,121.625z"/>
<path style="fill:#FED298;" d="M263.579,73.142l4.555-7.233c2.17-2.073,7.735,0.85,6.522,3.073l-2.765,8.236
	C271.454,78.526,263.774,75.926,263.579,73.142z"/>
<g>
	<path style="fill:#FF878E;" d="M295.129,257.931c0.29,0.582,0.054,1.29-0.528,1.582c-0.581,0.29-1.29,0.054-1.581-0.527
		c-0.014-0.027-4.878-9.758-2.072-20.795c2.17-8.535,2.635-15.826,2.733-18.249c-2.683-0.896-5.037-2.125-7.005-3.405
		c-2.563-1.666-4.506-3.469-5.692-4.768c-2.931-0.545-6.867,16.075-8.757,24.979c-0.002,0.149-0.034,0.295-0.091,0.43
		c-0.564,2.667-0.925,4.562-1,4.952c-0.05,0.663-0.724,7.749-7.677,12.872c-6.37,4.695-7.076,27.637-7.077,27.702
		c-0.02,0.651-0.565,1.161-1.217,1.142c-0.651-0.02-1.161-0.566-1.142-1.217c0.002-0.069,0.735-24.148,8.039-29.532
		c6.388-4.706,6.719-11.174,6.719-11.192c0.005-0.065,0.015-0.128,0.03-0.188c0.044-0.231,0.234-1.217,0.546-2.709l-0.503,0.334
		l-0.063,0.045c-1.902,1.282-3.744,2.524-10.145,3.775c-8.114,1.586-8.568,5.777-8.568,5.788c-0.066,0.649-0.647,1.12-1.294,1.055
		c-0.649-0.066-1.12-0.647-1.055-1.294c0.002-0.017,0.643-5.95,10.465-7.87c5.931-1.159,7.577-2.268,9.276-3.413l0.07-0.043
		c0.728-0.49,1.475-0.989,2.496-1.495c1.854-8.247,5.585-22.603,9.663-25.776l-0.025-0.053l-0.024-0.047
		c-0.842-1.676-7.811-15.535-9.192-25.65c-5.233,1.069-3.651,13.169-3.646,13.204c0.081,0.646-0.375,1.237-1.021,1.317
		c-0.646,0.081-1.237-0.376-1.317-1.021c-0.006-0.044-1.935-14.769,5.766-15.874c-0.012-0.281-0.02-0.561-0.02-0.833
		c0-8.405,2.589-29.986,3.472-37.104c-0.874,0.699-1.899,1.249-3.091,1.536c-2.678,0.649-4.852,1.269-6.476,2.293
		c-1.525,0.962-2.621,2.339-3.292,4.552c-0.401,1.321-1.043,3.06-1.765,5.017c-2.12,5.744-4.966,13.464-3.843,15.357l0.004,0.005
		l0.005,0.007l0.014,0.026c1.222,2.059,3.693,8.54,4.299,17.619c0.376,5.656,0.041,12.356-1.754,19.679
		c-0.154,0.633-0.79,1.022-1.424,0.868c-0.633-0.154-1.022-0.79-0.868-1.424c1.73-7.055,2.051-13.513,1.688-18.965
		c-0.517-7.782-2.41-13.449-3.6-15.88c-12.654,2.791-7.432,20.161-7.418,20.211c0.184,0.626-0.175,1.283-0.8,1.466
		c-0.626,0.184-1.283-0.175-1.465-0.8c-0.018-0.057-5.899-19.608,8.845-23.107c-0.408-3.651,2.138-10.551,4.102-15.876
		c0.725-1.967,1.371-3.718,1.726-4.887c0.682-2.247,1.725-3.831,3.133-5.021c-1.595-2.467-4.372-3.866-7.45-4.597
		c-5.692-1.352-12.326-0.443-14.927,0.299c-4.607,1.315-9.734,0.942-9.748,0.942c-0.651-0.035-1.15-0.593-1.114-1.244
		c0.035-0.652,0.593-1.151,1.244-1.115c0.013,0,4.759,0.345,8.971-0.857c2.812-0.803,9.98-1.786,16.12-0.329
		c3.611,0.857,6.899,2.551,8.868,5.593c1.758-0.925,3.868-1.519,6.374-2.125c1.734-0.419,3.013-1.63,3.94-3.013
		c0.056-0.141,0.137-0.266,0.24-0.373c1.467-2.385,1.949-5.103,1.952-5.115c0.11-0.643,0.722-1.076,1.363-0.966
		c0.644,0.11,1.077,0.722,0.968,1.365c-0.002,0.014-0.539,3.021-2.238,5.832c0.006,0.167,0.018,0.392,0.043,0.647
		c0.011,0.056,0.017,0.111,0.018,0.169c0.104,0.879,0.373,2.012,1.069,2.344c1.132,0.539,3.45,3.694,6.05,7.312l0.017,0.022
		l0.017,0.024l0.002,0.004l0.543,0.756c2.678,3.73,5.594,7.791,7.443,9.554c3.172,3.023,5.722,1.226,5.729,1.222
		c0.545-0.363,1.28-0.216,1.642,0.327c0.362,0.543,0.216,1.279-0.329,1.642c-0.011,0.007-4.102,2.875-8.67-1.48
		c-1.802-1.719-4.405-5.265-6.909-8.744c-0.547,2.741-0.337,6.252,0.337,9.602c0.946,4.7,2.761,8.982,4.637,10.275
		c4.65,3.203,3.381,12.342,3.378,12.368c-0.081,0.645-0.672,1.102-1.317,1.021s-1.102-0.672-1.021-1.317
		c0.002-0.021,1.067-7.755-2.381-10.129c-2.368-1.632-4.553-6.517-5.607-11.755c-0.892-4.426-1.01-9.186,0.215-12.513
		c-2.258-3.134-4.195-5.767-4.794-6.052c-0.201-0.096-0.384-0.209-0.553-0.337c-1.014,8.294-3.244,27.408-3.244,35.173
		c0,9.55,8.261,25.981,9.172,27.793l0.025,0.051l0.037,0.067c0.074,0.146,0.258,0.406,0.548,0.75
		c0.104,0.084,0.19,0.184,0.259,0.295c0.979,1.092,2.795,2.792,5.335,4.442c1.992,1.296,4.411,2.533,7.183,3.371
		c0.056,0.013,0.111,0.03,0.164,0.05c0.229,0.067,0.46,0.132,0.692,0.195c9.51,2.522,14.151,21.679,14.164,21.733
		c0.158,0.633-0.227,1.276-0.859,1.433c-0.633,0.157-1.276-0.228-1.433-0.86c-0.013-0.048-4.127-16.96-11.855-19.823
		c-0.155,3.016-0.722,10.044-2.775,18.119c-2.592,10.197,1.875,19.134,1.888,19.159L295.129,257.931z"/>
	<path style="fill:#FF878E;" d="M206.026,191.548c0.507,0.229,0.734,0.829,0.502,1.339c-0.231,0.506-0.831,0.734-1.337,0.502
		c-0.024-0.011-8.522-3.867-12.615-12.74c-3.164-6.861-6.793-11.971-8.036-13.638c-2.273,0.852-4.505,1.303-6.508,1.515
		c-2.609,0.273-4.878,0.123-6.37-0.103c-2.249,1.222,4.107,14.422,7.657,21.377c0.079,0.102,0.137,0.216,0.172,0.337
		c1.064,2.082,1.847,3.54,2.009,3.84c0.326,0.469,3.705,5.558,1.837,12.725c-1.71,6.57,10.214,22.243,10.247,22.286
		c0.339,0.445,0.253,1.08-0.194,1.418c-0.444,0.338-1.08,0.252-1.418-0.195c-0.035-0.046-12.554-16.49-10.596-24.023
		c1.717-6.587-1.56-11.076-1.569-11.089c-0.031-0.046-0.058-0.092-0.081-0.141c-0.096-0.178-0.502-0.937-1.099-2.102l-0.156,0.496
		l-0.017,0.065c-0.575,1.881-1.133,3.704-4.724,7.995c-4.551,5.44-2.589,8.477-2.584,8.485c0.305,0.467,0.175,1.095-0.292,1.401
		c-0.468,0.307-1.096,0.175-1.402-0.292c-0.008-0.012-2.787-4.312,2.723-10.898c3.327-3.976,3.826-5.605,4.339-7.286l0.022-0.065
		c0.221-0.722,0.449-1.456,0.857-2.345c-3.219-6.498-8.488-18.081-7.484-22.399l-0.045-0.022l-0.041-0.02
		c-0.573-0.257-2.772-1.249-5.618-2.719c0.171-0.675,0.354-1.335,0.538-1.999c2.98,1.55,5.324,2.606,5.91,2.871l0.045,0.02
		l0.06,0.025c0.129,0.058,0.392,0.132,0.771,0.204c0.115,0,0.227,0.022,0.331,0.058c1.244,0.198,3.371,0.35,5.955,0.079
		c2.029-0.213,4.309-0.696,6.609-1.634c0.045-0.021,0.09-0.04,0.136-0.056c0.189-0.078,0.378-0.159,0.568-0.246
		c7.699-3.455,21.141,6.805,21.179,6.834c0.447,0.337,0.538,0.972,0.201,1.419c-0.336,0.448-0.972,0.538-1.42,0.202
		c-0.034-0.026-11.912-9.074-18.608-6.809c1.526,2.095,4.945,7.085,7.938,13.575C198.198,187.996,206.003,191.538,206.026,191.548
		L206.026,191.548z"/>
</g>
<path style="fill:#FED298;" d="M190.73,300.239c-22.299-12.968-59.277-40.839-59.277-40.839s-10.104,13.204-2.845,25.393
	c7.257,12.193,38.046,33.952,38.046,33.952s-0.144,9.458-9.957,2.374c-9.813-7.084-49.103-50.099-49.103-50.099
	s-20.769-62.826-25.128-72.894c-4.361-10.07-15.44-7.948-15.44-7.948s8.068,87.395,9.077,95.327
	c1.013,7.928,68.247,91.783,68.247,91.783l19.564,25.184l-18.913,65.299l79.689,9.297l1.646-93.017
	C235.757,350.186,213.032,313.204,190.73,300.239z"/>
<path style="fill:#FFFFFF;" d="M240.456,434.155l-88.039-18.248l-3.808,18.827l87.66,20.586L240.456,434.155L240.456,434.155z"/>
<path style="fill:#21D0C3;" d="M234.402,511.085l10.477-56.912l-97.106-22.355l-14.06,49.138
	C164.082,497.496,198.171,508.059,234.402,511.085L234.402,511.085z"/>
<path style="fill:#FED298;" d="M321.27,300.238c22.299-12.967,59.277-40.838,59.277-40.838s10.104,13.204,2.845,25.393
	c-7.257,12.193-38.046,33.951-38.046,33.951s0.144,9.459,9.956,2.376c9.815-7.085,49.105-50.101,49.105-50.101
	s20.769-62.826,25.128-72.894c4.361-10.071,15.44-7.949,15.44-7.949s-8.068,87.395-9.077,95.327
	c-1.014,7.928-68.247,91.784-68.247,91.784l-19.564,25.184L367,467.768l-79.689,9.297l-1.646-93.017
	C276.243,350.186,298.969,313.202,321.27,300.238L321.27,300.238z"/>
<path style="fill:#FFFFFF;" d="M271.544,434.155l88.039-18.248l3.808,18.828l-87.66,20.586L271.544,434.155L271.544,434.155z"/>
<path style="fill:#21D0C3;" d="M277.598,511.085l-10.477-56.912l97.106-22.356l14.06,49.139
	C347.919,497.496,313.831,508.059,277.598,511.085L277.598,511.085z"/>
<g>
	<path style="fill:#FEFEFE;" d="M366.783,269.33l12.575-9.396l1.834,4.826l-10.639,8.6L366.783,269.33L366.783,269.33z"/>
	<path style="fill:#FEFEFE;" d="M145.418,269.792l-12.428-9.588l-1.908,4.798l10.505,8.762L145.418,269.792z"/>
</g>
<g>
	<path style="fill:#F0B97D;" d="M110.312,226.717l3.534,51.091l-0.007-0.007c-3.81-4.114-6.245-6.782-6.245-6.782
		s-6.243-18.882-12.601-37.603L94.64,218.14C94.507,212.442,109.454,209.954,110.312,226.717L110.312,226.717z"/>
	<path style="fill:#F0B97D;" d="M401.679,226.717l-3.534,51.091l0.007-0.007c3.81-4.114,6.245-6.782,6.245-6.782
		s6.243-18.882,12.601-37.603l0.352-15.277C417.484,212.442,402.537,209.954,401.679,226.717L401.679,226.717z"/>
</g>
<g>
</g>
<g>
</g>
<g>
</g>
<g>
</g>
<g>
</g>
<g>
</g>
<g>
</g>
<g>
</g>
<g>
</g>
<g>
</g>
<g>
</g>
<g>
</g>
<g>
</g>
<g>
</g>
<g>
</g>
</svg>
