<svg id="Capa_1" enable-background="new 0 0 506.424 506.424" height="512" viewBox="0 0 506.424 506.424" width="512" xmlns="http://www.w3.org/2000/svg"><g><path d="m46.653 314.603c-5.816 8.902-10.279 18.742-13.115 29.213l64.584 63.8 21.156-21.27z" fill="#f4d853"/><path d="m119.278 386.346-21.156 21.27 65.702 64.904c10.425-2.985 20.183-7.595 28.985-13.536z" fill="#e9a734"/><path d="m163.526 341.858-67.807-66.985c-9.844 3.785-18.931 9.04-27.012 15.485l73.664 72.77z" fill="#fbf599"/><path d="m142.37 363.128 74.371 73.468c6.351-8.176 11.496-17.329 15.173-27.18l-68.388-67.558z" fill="#f4d853"/><path d="m207.773 297.371-29.602-29.243-42.735-.048 51.182 50.561z" fill="#fcf7e2"/><path d="m186.618 318.641 51.727 51.1c-.008-7.002-.025-22.421-.048-42.216l-30.524-30.153z" fill="#fbf599"/><path d="m385.615 118.566 21.156-21.271-64.195-63.417c-10.451 2.971-20.228 7.562-29.04 13.482z" fill="#f4d853"/><path d="m459.697 191.75c5.829-8.872 10.317-18.688 13.172-29.158l-66.098-65.296-21.156 21.271z" fill="#e9a734"/><path d="m362.524 141.782-72.959-72.074c-6.362 8.176-11.504 17.333-15.164 27.19l66.967 66.155z" fill="#fbf599"/><path d="m341.368 163.052 69.25 68.411c9.798-3.798 18.882-9.061 26.982-15.515l-75.077-74.167z" fill="#f4d853"/><path d="m297.121 207.539 31.136 30.758c20.693.023 36.504.041 42.736.048l-52.716-52.077z" fill="#fbf599"/><path d="m318.277 186.269-50.194-49.585c.008 7.043.025 22.455.047 42.217l28.991 28.639z" fill="#fcf7e2"/><path d="m238.231 268.196c0-.482-.001-.963-.002-1.446l-1.436 1.444z" fill="#3d6def"/><path d="m238.197 238.196c-54.796-.062-105.385-.119-105.594-.119-71.257-.437-131.791 57.652-132.603 130.953l29.998.332c.098-8.802 1.324-17.366 3.54-25.546 2.836-10.471 7.299-20.311 13.115-29.213 6.009-9.198 13.462-17.392 22.054-24.244 8.081-6.445 17.168-11.7 27.012-15.485 11.392-4.381 23.792-6.797 36.815-6.797l2.902.003 42.736.048 58.621.066 1.436-1.444c-.011-9.485-.021-19.082-.032-28.554z" fill="#5ca2fa"/><path d="m476.426 137.061c-.098 8.815-1.332 17.371-3.557 25.531-2.854 10.469-7.343 20.286-13.172 29.158-6.037 9.189-13.514 17.361-22.096 24.199-8.1 6.454-17.185 11.717-26.982 15.515-11.422 4.428-23.808 6.87-36.725 6.885-.029 0-1.041-.001-2.9-.003-6.232-.007-22.043-.025-42.736-.048-17.482-.02-38.444-.043-60.06-.068.011 9.955.023 20.046.034 30l105.663.119c72.276-.086 131.729-58.832 132.53-130.954z" fill="#3d6def"/><path d="m266.598 238.228c.534 0 1.067.001 1.599.002 0-.536-.001-1.073-.002-1.608z" fill="#ff3838"/><path d="m369.031 0c-72.463.804-131.208 60.289-130.953 132.566 0 .214.057 50.822.119 105.629.011 9.473.021 19.07.032 28.555l28.369-28.522 1.598-1.606c-.023-20.745-.046-40.822-.065-57.722-.022-19.762-.04-35.173-.047-42.217-.003-2.679-.005-4.151-.005-4.186-.044-12.495 2.198-24.492 6.323-35.6 3.66-9.857 8.802-19.014 15.164-27.19 6.736-8.657 14.837-16.212 23.97-22.347 8.813-5.92 18.589-10.511 29.04-13.482 8.534-2.426 17.514-3.778 26.788-3.88z" fill="#ff5c5c"/><path d="m268.231 268.23c-.011-9.954-.022-20.045-.034-30-.533-.001-1.066-.001-1.599-.002l-28.369 28.522c0 .482.001.964.002 1.446.024 21.316.047 41.997.067 59.328.022 19.795.04 35.214.048 42.216.003 2.622.005 4.07.005 4.118-.015 12.479-2.294 24.461-6.436 35.558-3.677 9.851-8.822 19.004-15.173 27.18-6.734 8.67-14.822 16.239-23.932 22.388-8.802 5.941-18.56 10.551-28.985 13.536-8.53 2.442-17.502 3.803-26.763 3.906l.333 29.998c72.122-.8 130.869-60.253 130.956-132.565-.002-.21-.059-50.816-.12-105.629z" fill="#ff3838"/></g></svg>