<svg id="Capa_1" enable-background="new 0 0 510.492 510.492" height="512" viewBox="0 0 510.492 510.492" width="512" xmlns="http://www.w3.org/2000/svg"><g><path d="m-9.494 435.724h138.979v29.999h-138.979z" fill="#e4f3ff" transform="matrix(.707 -.708 .708 .707 -301.323 174.679)"/><path d="m-4.191 448.504h138.98v15.046h-138.98z" fill="#c3dafd" transform="matrix(.707 -.707 .707 .707 -303.425 179.861)"/><path d="m292.579 112.519h180.487v29.937h-180.487z" fill="#e4f3ff" transform="matrix(.707 -.707 .707 .707 22.043 308.163)"/><path d="m319.086 191.311 127.601-127.646 10.587 10.538-127.603 127.649z" fill="#c3dafd"/><path d="m431.647-11.316h30v149.86h-30z" fill="#c3dafd" transform="matrix(.708 -.707 .707 .708 85.672 334.238)"/><path d="m458.195 52.769h29.999v74.785h-29.999z" fill="#a1b8d8" transform="matrix(.708 -.706 .706 .708 74.515 360.525)"/><path d="m372.335 265.181-127.182-127.18-167.996 167.997 31.94 31.94-42.396 42.425 63.578 63.621 42.417-42.448 31.643 31.642z" fill="#f4d853"/><path d="m372.335 265.181-63.627-63.628-167.998 167.998.222.222-42.401 42.417 31.748 31.794 42.425-42.44 31.635 31.634z" fill="#e9a734"/><path d="m150.734 232.764h30v74.837h-30z" fill="#fbf599" transform="matrix(.707 -.708 .708 .707 -142.567 196.582)"/><path d="m203.716 179.782h30v74.838h-30z" fill="#fbf599" transform="matrix(.707 -.708 .708 .707 -89.523 218.513)"/><path d="m467.908 211.996-169.558-169.685-21.234 21.193 21.259 21.274-53.22 53.222 127.18 127.181 53.173-53.174 21.165 21.181z" fill="#e4f3ff"/><path d="m467.908 211.996-84.648-84.775-9.072 9.064-.106-.106-65.375 65.374 63.628 63.628 53.181-53.183 21.167 21.199z" fill="#c3dafd"/><path d="m293.315 149.393h105.263v29.936h-105.263z" fill="#c3dafd" transform="matrix(.707 -.708 .708 .707 -14.819 292.975)"/><path d="m308.79 201.605 74.414-74.457 10.578 10.547-74.416 74.459z" fill="#a1b8d8"/><path d="m362.06 275.492 20.551-20.672-127.192-127.14-20.554 20.668z" fill="#e9a734"/><path d="m325.942 188.358h29.148v90.008h-29.148z" fill="#e38620" transform="matrix(.706 -.708 .708 .706 -65.167 309.718)"/></g></svg>